<svg xmlns="http://www.w3.org/2000/svg" width="42.537" height="42.542" viewBox="0 0 42.537 42.542">
  <g id="gift" transform="translate(-0.028 0)">
    <path id="Контур_44" data-name="Контур 44" d="M120.6,265.918V276.25a1.186,1.186,0,0,0,1.246,1.115h11.9V256.1h-3.325Z" transform="translate(-110.558 -234.824)" fill="#7b07ff"/>
    <path id="Контур_45" data-name="Контур 45" d="M308.784,256.1h3.763v21.264h-3.763Z" transform="translate(-283.104 -234.824)" fill="#7b07ff"/>
    <path id="Контур_46" data-name="Контур 46" d="M393.456,256.1h-9.383v21.264h9.383a1.186,1.186,0,0,0,1.246-1.115V257.216A1.186,1.186,0,0,0,393.456,256.1Z" transform="translate(-352.137 -234.824)" fill="#7b07ff"/>
    <path id="Контур_47" data-name="Контур 47" d="M29.442,6.412,25.9,2.873a1.246,1.246,0,0,0-1.762,0L20.349,6.665c-.177-5.814-4.112-8.247-6.761-5.6-1.75,1.75-2.415,5.39-1.718,7.771a4.378,4.378,0,0,0-2.995,2.993c-2.362-.694-6.018-.044-7.778,1.715-2.665,2.665-.181,6.592,5.608,6.762l-3.8,3.8a1.246,1.246,0,0,0,0,1.762l3.538,3.538a1.245,1.245,0,0,0,1.762,0L29.442,8.175a1.247,1.247,0,0,0,0-1.763Zm-22.4,11.41c-2.49,0-4.513-1.053-4.514-1.9,0-.726,1.746-1.875,4.476-1.875a4.617,4.617,0,0,1,1.957.477A4.783,4.783,0,0,0,10.3,16.448a6.99,6.99,0,0,1-3.253,1.374Zm9.5-7.495a4.9,4.9,0,0,0-1.986-1.4A4.6,4.6,0,0,1,14.088,7,6.115,6.115,0,0,1,15.349,2.83c.377-.376.636-.33.613-.33.753,0,1.895,1.8,1.9,4.511A5.8,5.8,0,0,1,16.547,10.327Z" transform="translate(0 0)" fill="#7b07ff"/>
    <path id="Контур_48" data-name="Контур 48" d="M323.28,133.4l2.152,2.823h4.215v-1.877a1.246,1.246,0,0,1,2.492,0v1.877h4.182l2.151-2.823a1.245,1.245,0,0,0-.086-1.612l-3.128-3.3a1.243,1.243,0,0,0-.9-.39h-6.881a1.247,1.247,0,0,0-.895.379l-3.2,3.3a1.246,1.246,0,0,0-.1,1.623Z" transform="translate(-296.161 -117.459)" fill="#7b07ff"/>
  </g>
</svg>
