<svg id="instagram" xmlns="http://www.w3.org/2000/svg" width="44.707" height="44.707" viewBox="0 0 44.707 44.707">
  <g id="Сгруппировать_4" data-name="Сгруппировать 4">
    <g id="Сгруппировать_3" data-name="Сгруппировать 3">
      <path id="Контур_19" data-name="Контур 19" d="M30.736,0H13.971A13.972,13.972,0,0,0,0,13.971V30.736A13.972,13.972,0,0,0,13.971,44.707H30.736A13.972,13.972,0,0,0,44.707,30.736V13.971A13.972,13.972,0,0,0,30.736,0Zm9.78,30.736a9.79,9.79,0,0,1-9.78,9.78H13.971a9.79,9.79,0,0,1-9.78-9.78V13.971a9.79,9.79,0,0,1,9.78-9.78H30.736a9.79,9.79,0,0,1,9.78,9.78Z" fill="#7b07ff"/>
    </g>
  </g>
  <g id="Сгруппировать_6" data-name="Сгруппировать 6" transform="translate(11.177 11.177)">
    <g id="Сгруппировать_5" data-name="Сгруппировать 5">
      <path id="Контур_20" data-name="Контур 20" d="M139.177,128a11.177,11.177,0,1,0,11.177,11.177A11.177,11.177,0,0,0,139.177,128Zm0,18.162a6.985,6.985,0,1,1,6.985-6.985A7,7,0,0,1,139.177,146.162Z" transform="translate(-128 -128)" fill="#7b07ff"/>
    </g>
  </g>
  <g id="Сгруппировать_8" data-name="Сгруппировать 8" transform="translate(32.879 8.849)">
    <g id="Сгруппировать_7" data-name="Сгруппировать 7">
      <circle id="Эллипс_7" data-name="Эллипс 7" cx="1.489" cy="1.489" r="1.489" fill="#7b07ff"/>
    </g>
  </g>
</svg>
