<svg xmlns="http://www.w3.org/2000/svg" xmlns:xlink="http://www.w3.org/1999/xlink" width="599.153" height="597.836" viewBox="0 0 599.153 597.836">
  <defs>
    <linearGradient id="linear-gradient" x1="0.5" x2="4.122" y2="1" gradientUnits="objectBoundingBox">
      <stop offset="0" stop-color="#9818c7"/>
      <stop offset="1" stop-color="#7b07ff"/>
    </linearGradient>
  </defs>
  <g id="Сгруппировать_24" data-name="Сгруппировать 24" transform="translate(-1147.472 -3111.665)">
    <g id="Сгруппировать_10" data-name="Сгруппировать 10" transform="translate(919.5 1090)">
      <path id="Контур_24" data-name="Контур 24" d="M240.7-1.1a11.652,11.652,0,0,1,1.627-.575c5.049-1.451,21.436-3.773,43.292,17.421,0,0,12.033,20.053,37.433,19.519,0,0,50-17.914,77,8.021,0,0,17.113,11.5,21.125,43.314,0,0-.537,24.6,50,33.691,0,0,41.442,12.834,32.887,74.863,0,0-13.905,37.433,15.774,55.884,19.057,11.844,18.492,38.683,15.645,56.377a42.863,42.863,0,0,1-12.937,24.54c-12.428,11.643-31.932,34.747-19.821,56.512l-.267,1.071s9.893,36.362-7.487,62.566c-13.673,20.612-40.088,25.174-50.732,26.183a15.542,15.542,0,0,0-10.977,6.12c-4.323,5.734-10.415,17.012-16.9,39.085-12.567,42.78-81.818,40.641-93.851,31.552,0,0-14.436-4.813-25.4,9.089-9.5,12.045-32.24,27.3-65.274,26.817a44.628,44.628,0,0,1-26.412-9.306c-7.864-6.013-18.639-14.379-26.682-21.09a25.13,25.13,0,0,0-20.889-5.457c-14.687,2.846-40.549,5.963-62.076-1.392,0,0-24.062-5.08-38.768-46.792a49.907,49.907,0,0,0-6.685-22.994c-4.241-7.125-24.3-13.173-38.4-16.641a40.545,40.545,0,0,1-24.062-16.893c-7.279-10.939-16.129-26.051-17.213-36.252C-31.217,396.492,3.005,361.2-42.715,336.6c0,0-21.659-23.264-15.24-55.614,4.116-20.744,18.448-36.541,28.209-45.206,8.482-7.534,12.325-19.381,9.057-30.242a23.791,23.791,0,0,0-1.706-4.232c-2.881-5.488-2.875-18.08-2.187-29.045,1.024-16.356,7.477-32.13,19.067-43.716A40.7,40.7,0,0,1,5.679,120.3c16.044-7.487,51.6-7.757,57.486-51.338,4.942-36.6,50.794-40.955,73.914-40.3a33.814,33.814,0,0,1,15.168,4.414c5.856,3.189,16.72,5.526,30.971-7.16,21.926-19.519,23.795-24.854,38.5-28.47S240.7-1.1,240.7-1.1Z" transform="translate(288.644 2027.033)" fill="none" stroke="#7b07ff" stroke-miterlimit="10" stroke-width="3" opacity="0.66"/>
      <path id="Контур_25" data-name="Контур 25" d="M205.277-3.512c.591.068,1.158.121,1.749.144,7.36.3,62.872,3.492,87.372,31.493,23.048,26.34,95.5,55.57,112.913,62.34a28.605,28.605,0,0,1,7.881,4.609c13.713,11.32,57,53.307,53.051,129.707-.032.614-.065,1.232-.1,1.852,0,0-19.139,37.9-3.377,93.06S440,457.036,376.953,474.673c-51.067,14.286-73.572,37.931-80.277,46.4a29.354,29.354,0,0,1-6.928,6.361c-19.935,13.054-100.673,58.072-177.567-10.7-.767-.688-1.487-1.417-2.184-2.175-5.241-5.717-33.4-34.068-88.677-48.386a27.066,27.066,0,0,1-4.4-1.529C3.627,458.6-59.618,424.3-51.343,321.324a30.92,30.92,0,0,1,.42-3.113c1.728-9.283,10.538-60.109,2.719-93.081-8.474-35.738-2.116-60.262,27.6-110.865l.018-.029a28.516,28.516,0,0,1,5.7-6.914C-6.608,99.98,16.887,83.09,77.02,59a28.944,28.944,0,0,0,8.663-5.388C100.647,40.083,158.445-8.9,205.277-3.512Z" transform="translate(322.028 2044.711)" fill="none" stroke="#9818c7" stroke-miterlimit="10" stroke-width="3" opacity="0.6"/>
      <g id="Эллипс_8" data-name="Эллипс 8" transform="translate(253 2045)" fill="none" stroke="#7b07ff" stroke-width="3">
        <ellipse cx="279.5" cy="279" rx="279.5" ry="279" stroke="none"/>
        <ellipse cx="279.5" cy="279" rx="278" ry="277.5" fill="none"/>
      </g>
    </g>
    <g id="Сгруппировать_9" data-name="Сгруппировать 9" transform="translate(960.5 1131.737)">
      <line id="Линия_2" data-name="Линия 2" x2="270.134" transform="translate(351.5 2322.491)" fill="none" stroke="#7b07ff" stroke-width="3"/>
      <g id="sound-waves" transform="translate(367.325 2289)">
        <path id="Контур_27" data-name="Контур 27" d="M1.748,102.895A1.748,1.748,0,0,0,0,104.642v8.74a1.748,1.748,0,1,0,3.5,0v-8.74A1.747,1.747,0,0,0,1.748,102.9Zm0,0" transform="translate(0 -76.673)" fill="url(#linear-gradient)"/>
        <path id="Контур_28" data-name="Контур 28" d="M35.9,74.941a1.749,1.749,0,0,0-1.748,1.748v24.2a1.748,1.748,0,1,0,3.5,0V76.69A1.749,1.749,0,0,0,35.9,74.941Zm0,0" transform="translate(-25.41 -55.877)" fill="url(#linear-gradient)"/>
        <path id="Контур_29" data-name="Контур 29" d="M70.014,27.8a1.748,1.748,0,0,0-1.748,1.747V78.5a1.748,1.748,0,1,0,3.5,0V29.548A1.748,1.748,0,0,0,70.014,27.8Zm0,0" transform="translate(-50.785 -20.808)" fill="url(#linear-gradient)"/>
        <path id="Контур_30" data-name="Контур 30" d="M104.147,61.934a1.748,1.748,0,0,0-1.748,1.748V93.4a1.748,1.748,0,1,0,3.5,0V63.682A1.748,1.748,0,0,0,104.147,61.934Zm0,0" transform="translate(-76.178 -46.2)" fill="url(#linear-gradient)"/>
        <path id="Контур_31" data-name="Контур 31" d="M207.216,45.406a1.747,1.747,0,0,0-1.747,1.748v39.33a1.748,1.748,0,0,0,3.5,0V47.155A1.748,1.748,0,0,0,207.216,45.406Zm0,0" transform="translate(-152.855 -33.905)" fill="url(#linear-gradient)"/>
        <path id="Контур_32" data-name="Контур 32" d="M274.815,55.106a1.749,1.749,0,0,0-1.749,1.748V91.815a1.748,1.748,0,1,0,3.5,0V56.854A1.748,1.748,0,0,0,274.815,55.106Zm0,0" transform="translate(-203.143 -41.121)" fill="url(#linear-gradient)"/>
        <path id="Контур_33" data-name="Контур 33" d="M308.947,89.238a1.749,1.749,0,0,0-1.748,1.748v17.481a1.748,1.748,0,1,0,3.5,0V90.987A1.748,1.748,0,0,0,308.947,89.238Zm0,0" transform="translate(-228.535 -66.513)" fill="url(#linear-gradient)"/>
        <path id="Контур_34" data-name="Контур 34" d="M240.682.492a1.748,1.748,0,0,0-1.748,1.748V65.172a1.748,1.748,0,1,0,3.5,0V2.241A1.748,1.748,0,0,0,240.682.492Zm0,0" transform="translate(-177.75 -0.492)" fill="url(#linear-gradient)"/>
        <path id="Контур_35" data-name="Контур 35" d="M138.282,109.719a1.748,1.748,0,0,0-1.747,1.748v6.992a1.748,1.748,0,1,0,3.5,0v-6.992A1.749,1.749,0,0,0,138.282,109.719Zm0,0" transform="translate(-101.572 -81.749)" fill="url(#linear-gradient)"/>
        <path id="Контур_36" data-name="Контур 36" d="M343.08,107.434a1.748,1.748,0,0,0-1.748,1.748v7.564a1.748,1.748,0,1,0,3.5,0v-7.564A1.748,1.748,0,0,0,343.08,107.434Zm0,0" transform="translate(-253.927 -80.05)" fill="url(#linear-gradient)"/>
        <path id="Контур_37" data-name="Контур 37" d="M171.772,94.418a1.747,1.747,0,0,0-1.749,1.747V110.4a1.748,1.748,0,1,0,3.5,0V96.165A1.747,1.747,0,0,0,171.772,94.418Zm0,0" transform="translate(-126.486 -70.367)" fill="url(#linear-gradient)"/>
      </g>
      <g id="sound-waves-2" data-name="sound-waves" transform="translate(454.593 2289)">
        <path id="Контур_27-2" data-name="Контур 27" d="M1.748,102.895A1.748,1.748,0,0,0,0,104.642v8.74a1.748,1.748,0,1,0,3.5,0v-8.74A1.747,1.747,0,0,0,1.748,102.9Zm0,0" transform="translate(0 -76.673)" fill="url(#linear-gradient)"/>
        <path id="Контур_28-2" data-name="Контур 28" d="M35.9,74.941a1.749,1.749,0,0,0-1.748,1.748v24.2a1.748,1.748,0,1,0,3.5,0V76.69A1.749,1.749,0,0,0,35.9,74.941Zm0,0" transform="translate(-25.41 -55.877)" fill="url(#linear-gradient)"/>
        <path id="Контур_29-2" data-name="Контур 29" d="M70.014,27.8a1.748,1.748,0,0,0-1.748,1.747V78.5a1.748,1.748,0,1,0,3.5,0V29.548A1.748,1.748,0,0,0,70.014,27.8Zm0,0" transform="translate(-50.785 -20.808)" fill="url(#linear-gradient)"/>
        <path id="Контур_30-2" data-name="Контур 30" d="M104.147,61.934a1.748,1.748,0,0,0-1.748,1.748V93.4a1.748,1.748,0,1,0,3.5,0V63.682A1.748,1.748,0,0,0,104.147,61.934Zm0,0" transform="translate(-76.178 -46.2)" fill="url(#linear-gradient)"/>
        <path id="Контур_31-2" data-name="Контур 31" d="M207.216,45.406a1.747,1.747,0,0,0-1.747,1.748v39.33a1.748,1.748,0,0,0,3.5,0V47.155A1.748,1.748,0,0,0,207.216,45.406Zm0,0" transform="translate(-152.855 -33.905)" fill="url(#linear-gradient)"/>
        <path id="Контур_32-2" data-name="Контур 32" d="M274.815,55.106a1.749,1.749,0,0,0-1.749,1.748V91.815a1.748,1.748,0,1,0,3.5,0V56.854A1.748,1.748,0,0,0,274.815,55.106Zm0,0" transform="translate(-203.143 -41.121)" fill="url(#linear-gradient)"/>
        <path id="Контур_33-2" data-name="Контур 33" d="M308.947,89.238a1.749,1.749,0,0,0-1.748,1.748v17.481a1.748,1.748,0,1,0,3.5,0V90.987A1.748,1.748,0,0,0,308.947,89.238Zm0,0" transform="translate(-228.535 -66.513)" fill="url(#linear-gradient)"/>
        <path id="Контур_34-2" data-name="Контур 34" d="M240.682.492a1.748,1.748,0,0,0-1.748,1.748V65.172a1.748,1.748,0,1,0,3.5,0V2.241A1.748,1.748,0,0,0,240.682.492Zm0,0" transform="translate(-177.75 -0.492)" fill="url(#linear-gradient)"/>
        <path id="Контур_35-2" data-name="Контур 35" d="M138.282,109.719a1.748,1.748,0,0,0-1.747,1.748v6.992a1.748,1.748,0,1,0,3.5,0v-6.992A1.749,1.749,0,0,0,138.282,109.719Zm0,0" transform="translate(-101.572 -81.749)" fill="url(#linear-gradient)"/>
        <path id="Контур_36-2" data-name="Контур 36" d="M343.08,107.434a1.748,1.748,0,0,0-1.748,1.748v7.564a1.748,1.748,0,1,0,3.5,0v-7.564A1.748,1.748,0,0,0,343.08,107.434Zm0,0" transform="translate(-253.927 -80.05)" fill="url(#linear-gradient)"/>
        <path id="Контур_37-2" data-name="Контур 37" d="M171.772,94.418a1.747,1.747,0,0,0-1.749,1.747V110.4a1.748,1.748,0,1,0,3.5,0V96.165A1.747,1.747,0,0,0,171.772,94.418Zm0,0" transform="translate(-126.486 -70.367)" fill="url(#linear-gradient)"/>
      </g>
    </g>
    <g id="pause_1_" data-name="pause (1)" transform="translate(1423.271 3320)">
      <path id="Контур_42" data-name="Контур 42" d="M17.991,40.976a6.631,6.631,0,0,1-6.631,6.631h0a6.631,6.631,0,0,1-6.631-6.631V6.631A6.631,6.631,0,0,1,11.36,0h0a6.631,6.631,0,0,1,6.631,6.631Z" fill="#7b07ff"/>
      <path id="Контур_43" data-name="Контур 43" d="M42.877,40.976a6.631,6.631,0,0,1-6.631,6.631h0a6.631,6.631,0,0,1-6.631-6.631V6.631A6.633,6.633,0,0,1,36.246,0h0a6.631,6.631,0,0,1,6.631,6.631Z" fill="#7b07ff"/>
    </g>
  </g>
</svg>
