<svg xmlns="http://www.w3.org/2000/svg" width="45" height="45" viewBox="0 0 45 45">
  <g id="whatsapp_1_" data-name="whatsapp (1)" transform="translate(0 0)">
    <path id="Контур_22" data-name="Контур 22" d="M27.6,21.267l-.017.141c-4.123-2.055-4.554-2.329-5.087-1.53-.369.553-1.446,1.807-1.77,2.179s-.654.394-1.211.141a15.217,15.217,0,0,1-4.506-2.784,17.011,17.011,0,0,1-3.112-3.881c-.549-.949.6-1.084,1.646-3.064a1.031,1.031,0,0,0-.047-.982c-.141-.281-1.26-3.037-1.729-4.136-.45-1.095-.913-.956-1.26-.956a2.791,2.791,0,0,0-2.565.645c-3.026,3.326-2.263,6.757.326,10.406,5.089,6.66,7.8,7.886,12.757,9.589a7.757,7.757,0,0,0,3.525.227c1.076-.171,3.313-1.352,3.78-2.674a4.641,4.641,0,0,0,.337-2.672c-.139-.253-.506-.394-1.069-.647Z" transform="translate(5.229 5.559)" fill="#7b07ff"/>
    <path id="Контур_23" data-name="Контур 23" d="M38.475,6.467C24.058-7.47.2,2.638.189,22.3A22.192,22.192,0,0,0,3.18,33.446L0,45l11.878-3.1C26.7,49.909,44.992,39.278,45,22.311A22.114,22.114,0,0,0,38.447,6.54Zm2.779,15.782C41.242,36.561,25.532,45.5,13.106,38.194l-.675-.4L5.4,39.621l1.884-6.834-.448-.7A18.6,18.6,0,0,1,35.8,9.143a18.352,18.352,0,0,1,5.454,13.106Z" transform="translate(0 0)" fill="#7b07ff"/>
  </g>
</svg>
